<svg width="128" height="32" viewBox="0 0 120 32" fill="none" xmlns="http://www.w3.org/2000/svg">
<path d="M2.17313 18.912C1.53313 18.912 1.05313 18.7093 0.733125 18.304C0.434458 17.8987 0.285125 17.4293 0.285125 16.896C0.285125 16.3413 0.434458 15.8613 0.733125 15.456C1.05313 15.0507 1.53313 14.848 2.17313 14.848C1.78913 14.848 1.47979 14.688 1.24513 14.368C1.01046 14.048 0.850458 13.6533 0.765125 13.184C0.679792 12.7147 0.679792 12.2453 0.765125 11.776C0.850458 11.3067 1.01046 10.912 1.24513 10.592C1.47979 10.272 1.78913 10.112 2.17313 10.112C1.55446 10.112 1.08513 9.90933 0.765125 9.504C0.466458 9.07733 0.317125 8.58667 0.317125 8.032C0.317125 7.456 0.466458 6.96533 0.765125 6.56C1.08513 6.13333 1.55446 5.92 2.17313 5.92C1.36246 5.92 0.818458 5.76 0.541125 5.44C0.285125 5.12 0.285125 4.8 0.541125 4.48C0.818458 4.16 1.36246 4 2.17313 4C1.51179 4 1.06379 3.872 0.829125 3.616C0.615792 3.36 0.615792 3.104 0.829125 2.848C1.06379 2.592 1.51179 2.464 2.17313 2.464C2.19446 1.952 2.37579 1.57867 2.71713 1.344C3.05846 1.088 3.44246 0.970666 3.86913 0.991999C4.31713 0.991999 4.70113 1.13067 5.02113 1.408C5.34113 1.664 5.50113 2.048 5.50113 2.56C5.65046 2.19733 5.88513 1.984 6.20513 1.92C6.54646 1.83467 6.88779 1.86667 7.22913 2.016C7.57046 2.144 7.82646 2.35733 7.99713 2.656C8.18913 2.93333 8.21046 3.25333 8.06113 3.616C8.55179 3.33867 8.98913 3.264 9.37313 3.392C9.77846 3.49866 10.0878 3.72267 10.3011 4.064C10.5145 4.40533 10.5785 4.77867 10.4931 5.184C10.4078 5.58933 10.1305 5.94133 9.66113 6.24C10.2798 5.856 10.7491 5.70667 11.0691 5.792C11.4105 5.856 11.5385 6.048 11.4531 6.368C11.3678 6.688 11.0051 7.04 10.3651 7.424C10.9411 7.08267 11.4318 7.008 11.8371 7.2C12.2638 7.392 12.5305 7.70133 12.6371 8.128C12.7438 8.55467 12.6051 8.97067 12.2211 9.376C12.5411 9.184 12.8718 9.152 13.2131 9.28C13.4051 8.96 13.6718 8.736 14.0131 8.608C14.3758 8.45867 14.7491 8.50133 15.1331 8.736C14.6425 8.43733 14.3438 8.10667 14.2371 7.744C14.1305 7.38133 14.1625 7.06133 14.3331 6.784C14.5251 6.48533 14.8025 6.304 15.1651 6.24C15.5491 6.176 15.9758 6.28267 16.4451 6.56C15.9545 6.26133 15.6451 5.94133 15.5171 5.6C15.4105 5.25867 15.4318 4.96 15.5811 4.704C15.7305 4.448 15.9865 4.29867 16.3491 4.256C16.7118 4.192 17.1385 4.30933 17.6291 4.608C17.1385 4.288 16.8291 3.94667 16.7011 3.584C16.5731 3.22133 16.5945 2.912 16.7651 2.656C16.9358 2.4 17.2025 2.25067 17.5651 2.208C17.9491 2.16533 18.3971 2.304 18.9091 2.624C18.8878 2.112 19.0371 1.728 19.3571 1.472C19.6771 1.19467 20.0398 1.056 20.4451 1.056C20.8718 1.03467 21.2451 1.152 21.5651 1.408C21.8851 1.664 22.0558 2.048 22.0771 2.56C22.2691 2.19733 22.5145 1.984 22.8131 1.92C23.1118 1.83467 23.3891 1.86667 23.6451 2.016C23.9225 2.144 24.1145 2.35733 24.2211 2.656C24.3491 2.93333 24.3171 3.25333 24.1251 3.616C24.9145 3.616 25.4371 3.776 25.6931 4.096C25.9491 4.416 25.9491 4.736 25.6931 5.056C25.4371 5.376 24.9145 5.536 24.1251 5.536C24.8718 5.536 25.3625 5.68533 25.5971 5.984C25.8531 6.28267 25.8531 6.58133 25.5971 6.88C25.3625 7.17867 24.8718 7.328 24.1251 7.328C24.7651 7.328 25.1918 7.49867 25.4051 7.84C25.6185 8.16 25.6185 8.49067 25.4051 8.832C25.1918 9.17333 24.7651 9.344 24.1251 9.344C24.5945 9.344 24.9678 9.504 25.2451 9.824C25.5438 10.144 25.7358 10.5387 25.8211 11.008C25.9278 11.4773 25.9278 11.9467 25.8211 12.416C25.7358 12.8853 25.5438 13.28 25.2451 13.6C24.9678 13.92 24.5945 14.08 24.1251 14.08C24.6371 14.08 25.0211 14.1973 25.2771 14.432C25.5331 14.6667 25.6611 14.9333 25.6611 15.232C25.6611 15.5307 25.5331 15.7973 25.2771 16.032C25.0211 16.2667 24.6371 16.384 24.1251 16.384C24.5945 16.384 24.9678 16.5547 25.2451 16.896C25.5225 17.216 25.7038 17.6213 25.7891 18.112C25.8958 18.6027 25.8958 19.104 25.7891 19.616C25.7038 20.1067 25.5225 20.5227 25.2451 20.864C24.9678 21.184 24.5945 21.344 24.1251 21.344C24.9571 21.344 25.5118 21.4507 25.7891 21.664C26.0665 21.8773 26.0665 22.0907 25.7891 22.304C25.5118 22.5173 24.9571 22.624 24.1251 22.624C24.1891 23.1787 24.0718 23.616 23.7731 23.936C23.4745 24.256 23.1011 24.4373 22.6531 24.48C22.2265 24.544 21.8318 24.4587 21.4691 24.224C21.1065 23.9893 20.8931 23.5947 20.8291 23.04C20.6585 23.488 20.4131 23.776 20.0931 23.904C19.7731 24.032 19.4531 24.032 19.1331 23.904C18.8345 23.776 18.6105 23.5627 18.4611 23.264C18.3331 22.944 18.3545 22.56 18.5251 22.112C17.7145 22.112 17.1705 21.984 16.8931 21.728C16.6371 21.472 16.6371 21.2267 16.8931 20.992C17.1705 20.736 17.7145 20.608 18.5251 20.608C17.9278 20.608 17.4691 20.4053 17.1491 20C16.8505 19.5733 16.6798 19.0827 16.6371 18.528C16.6158 17.9733 16.7331 17.472 16.9891 17.024C17.2451 16.5547 17.6505 16.2773 18.2051 16.192C17.7358 16.192 17.4158 16.0107 17.2451 15.648C17.0318 15.7333 16.8611 15.6693 16.7331 15.456C16.4771 15.4133 16.2105 15.3067 15.9331 15.136C16.2958 15.392 16.4665 15.712 16.4451 16.096C16.4451 16.48 16.3278 16.8427 16.0931 17.184C15.8585 17.504 15.5598 17.728 15.1971 17.856C14.8558 17.984 14.5038 17.92 14.1411 17.664C13.9278 18.0267 13.5971 18.208 13.1491 18.208C12.7011 18.1867 12.2425 18.048 11.7731 17.792C11.3251 17.5147 10.9731 17.1947 10.7171 16.832C10.4825 16.448 10.4718 16.064 10.6851 15.68C10.5145 15.7867 10.3438 15.872 10.1731 15.936C10.0451 16.2347 9.85313 16.4907 9.59713 16.704C9.34113 16.9173 9.06379 17.0347 8.76513 17.056C9.08513 17.2693 9.25579 17.5573 9.27713 17.92C9.31979 18.2827 9.21313 18.6133 8.95713 18.912C8.70113 19.1893 8.30646 19.328 7.77313 19.328C8.47713 19.328 8.94646 19.4773 9.18113 19.776C9.41579 20.0747 9.41579 20.3733 9.18113 20.672C8.94646 20.9493 8.47713 21.088 7.77313 21.088C8.45579 21.28 8.86113 21.5787 8.98913 21.984C9.13846 22.368 9.05313 22.688 8.73313 22.944C8.43446 23.2 7.93313 23.232 7.22913 23.04C7.22913 23.5947 7.05846 24.0107 6.71713 24.288C6.37579 24.5653 5.98113 24.704 5.53313 24.704C5.08513 24.704 4.69046 24.5653 4.34913 24.288C4.00779 24.0107 3.83713 23.5947 3.83713 23.04C3.83713 23.6587 3.75179 24.096 3.58113 24.352C3.41046 24.6293 3.20779 24.64 2.97313 24.384C2.73846 24.1493 2.53579 23.5947 2.36513 22.72C2.21579 21.8453 2.15179 20.576 2.17313 18.912ZM34.1874 23.264C34.0807 23.584 33.878 23.7973 33.5794 23.904C33.302 23.9893 33.0034 23.9787 32.6834 23.872C32.3847 23.7653 32.1394 23.5947 31.9474 23.36C31.7767 23.104 31.7447 22.816 31.8514 22.496C31.6594 22.6667 31.4034 22.6773 31.0834 22.528C30.7634 22.3787 30.4327 22.144 30.0914 21.824C29.7714 21.504 29.4834 21.152 29.2274 20.768C28.9927 20.3627 28.8327 19.9893 28.7474 19.648C28.6834 19.3067 28.7474 19.0613 28.9394 18.912C28.3634 18.9973 27.9474 18.912 27.6914 18.656C27.4567 18.3787 27.414 18.08 27.5634 17.76C27.7127 17.4187 28.0754 17.2053 28.6514 17.12C28.3314 17.12 28.086 17.0027 27.9154 16.768C27.766 16.5333 27.6807 16.2667 27.6594 15.968C27.6594 15.648 27.734 15.3707 27.8834 15.136C28.054 14.88 28.2994 14.752 28.6194 14.752C28.278 14.688 28.0434 14.496 27.9154 14.176C27.8087 13.856 27.7874 13.5147 27.8514 13.152C27.9367 12.768 28.086 12.448 28.2994 12.192C28.534 11.936 28.822 11.84 29.1634 11.904C28.8007 11.6693 28.598 11.392 28.5554 11.072C28.5127 10.752 28.566 10.4747 28.7154 10.24C28.886 9.984 29.1207 9.824 29.4194 9.76C29.7394 9.67467 30.0807 9.74933 30.4434 9.984C30.2514 9.70667 30.198 9.44 30.2834 9.184C30.3687 8.90667 30.5287 8.69333 30.7634 8.544C30.998 8.37333 31.254 8.29867 31.5314 8.32C31.8087 8.34133 32.0434 8.49067 32.2354 8.768C32.086 8.32 32.0967 7.98933 32.2674 7.776C32.438 7.54133 32.6514 7.456 32.9074 7.52C33.1847 7.584 33.4087 7.84 33.5794 8.288C33.5154 7.94667 33.5687 7.68 33.7394 7.488C33.91 7.296 34.1234 7.17867 34.3794 7.136C34.6567 7.072 34.9127 7.104 35.1474 7.232C35.382 7.36 35.5314 7.584 35.5954 7.904C35.5954 7.584 35.7447 7.34933 36.0434 7.2C36.3634 7.02933 36.726 6.944 37.1314 6.944C37.5367 6.944 37.8887 7.02933 38.1874 7.2C38.5074 7.34933 38.6674 7.584 38.6674 7.904C38.7527 7.456 38.9554 7.14667 39.2754 6.976C39.6167 6.80533 39.9687 6.76267 40.3314 6.848C40.694 6.912 40.982 7.09333 41.1954 7.392C41.43 7.66933 41.5047 8.04267 41.4194 8.512C41.5687 8.21333 41.782 8.05333 42.0594 8.032C42.358 8.01067 42.6354 8.07467 42.8914 8.224C43.1687 8.352 43.3607 8.544 43.4674 8.8C43.5954 9.056 43.574 9.33333 43.4034 9.632C43.7447 9.39733 44.086 9.35467 44.4274 9.504C44.7687 9.632 45.046 9.856 45.2594 10.176C45.494 10.496 45.622 10.848 45.6434 11.232C45.6647 11.5947 45.5047 11.8827 45.1634 12.096C45.526 12.0747 45.8247 12.2027 46.0594 12.48C46.3154 12.7573 46.4967 13.12 46.6034 13.568C46.7314 13.9947 46.7847 14.4427 46.7634 14.912C46.742 15.36 46.6354 15.744 46.4434 16.064C46.2727 16.384 46.006 16.5653 45.6434 16.608C46.0914 16.6933 46.39 16.9173 46.5394 17.28C46.6887 17.6213 46.7207 18.0053 46.6354 18.432C46.5714 18.8373 46.39 19.1787 46.0914 19.456C45.814 19.7333 45.462 19.8293 45.0354 19.744C45.3554 19.9573 45.526 20.2133 45.5474 20.512C45.59 20.7893 45.526 21.0453 45.3554 21.28C45.1847 21.5147 44.9607 21.6747 44.6834 21.76C44.406 21.824 44.1074 21.7493 43.7874 21.536C43.9794 21.8347 44.0327 22.1227 43.9474 22.4C43.862 22.656 43.6914 22.8587 43.4354 23.008C43.2007 23.1573 42.934 23.2213 42.6354 23.2C42.358 23.1787 42.134 23.0187 41.9634 22.72C42.0914 23.1253 42.0274 23.4453 41.7714 23.68C41.5154 23.9147 41.2167 24.0107 40.8754 23.968C40.5554 23.904 40.3314 23.6587 40.2034 23.232C40.2887 23.744 40.1927 24.096 39.9154 24.288C39.638 24.5013 39.3287 24.544 38.9874 24.416C38.6674 24.288 38.4754 23.9787 38.4114 23.488C38.454 24.4053 38.134 24.864 37.4514 24.864C36.7687 24.864 35.6807 24.3307 34.1874 23.264ZM39.2434 18.24C39.0087 18.2187 38.838 18.048 38.7314 17.728C38.646 17.408 38.6034 17.0347 38.6034 16.608C38.6247 16.16 38.6887 15.7653 38.7954 15.424C38.902 15.0827 39.062 14.88 39.2754 14.816C39.062 14.816 38.8487 14.6667 38.6354 14.368C38.4434 14.0693 38.2834 13.728 38.1554 13.344C38.0487 12.9387 38.006 12.5867 38.0274 12.288C37.8354 12.4587 37.6007 12.5227 37.3234 12.48C37.046 12.4373 36.8327 12.2987 36.6834 12.064C36.662 12.2347 36.598 12.3413 36.4914 12.384C36.3847 12.4267 36.2674 12.4053 36.1394 12.32C36.2034 12.6187 36.182 12.9707 36.0754 13.376C35.99 13.76 35.8514 14.1013 35.6594 14.4C35.4674 14.6987 35.254 14.848 35.0194 14.848C35.2754 14.912 35.4354 15.0933 35.4994 15.392C35.5847 15.6907 35.574 15.9893 35.4674 16.288C35.3607 16.5653 35.1687 16.704 34.8914 16.704C35.126 16.6613 35.3287 16.7893 35.4994 17.088C35.6914 17.3653 35.8194 17.696 35.8834 18.08C35.9687 18.464 35.9794 18.7947 35.9154 19.072C36.214 18.9013 36.662 18.8053 37.2594 18.784C37.8567 18.7627 38.518 18.5813 39.2434 18.24ZM49.5666 23.392C49.2253 23.3707 48.9693 23.232 48.7986 22.976C48.628 22.72 48.5426 22.4213 48.5426 22.08C48.564 21.7387 48.66 21.4507 48.8306 21.216C49.0226 20.96 49.2893 20.832 49.6306 20.832C49.2253 20.832 48.916 20.64 48.7026 20.256C48.4893 19.8507 48.3826 19.392 48.3826 18.88C48.3826 18.3467 48.4893 17.888 48.7026 17.504C48.916 17.0987 49.2253 16.896 49.6306 16.896C49.2466 16.896 48.9586 16.6933 48.7666 16.288C48.596 15.8613 48.5106 15.3813 48.5106 14.848C48.5106 14.3147 48.596 13.8453 48.7666 13.44C48.9586 13.0133 49.2466 12.8 49.6306 12.8C49.1826 12.8 48.8413 12.672 48.6066 12.416C48.3933 12.16 48.2866 11.872 48.2866 11.552C48.2866 11.2107 48.3933 10.912 48.6066 10.656C48.8413 10.4 49.1826 10.272 49.6306 10.272C49.3106 10.208 49.0866 10.0587 48.9586 9.824C48.8306 9.58933 48.788 9.33333 48.8306 9.056C48.8733 8.77867 48.9906 8.55467 49.1826 8.384C49.3746 8.192 49.6306 8.11733 49.9506 8.16C49.9506 7.79733 50.1106 7.50933 50.4306 7.296C50.7506 7.08267 51.156 6.944 51.6466 6.88C52.1373 6.79467 52.6173 6.79467 53.0866 6.88C53.5773 6.944 53.9826 7.08267 54.3026 7.296C54.6226 7.50933 54.7826 7.79733 54.7826 8.16C55.0386 7.88267 55.3266 7.79733 55.6466 7.904C55.988 7.98933 56.2653 8.16 56.4786 8.416C56.692 8.07467 57.0226 7.88267 57.4706 7.84C57.9186 7.776 58.2813 7.98933 58.5586 8.48C58.4946 8.11733 58.6013 7.81867 58.8786 7.584C59.1773 7.328 59.54 7.15733 59.9666 7.072C60.3933 6.98667 60.788 7.008 61.1506 7.136C61.5133 7.24267 61.7266 7.47733 61.7906 7.84C61.94 7.584 62.1853 7.456 62.5266 7.456C62.8893 7.43467 63.2733 7.50933 63.6786 7.68C64.1053 7.85067 64.5 8.064 64.8626 8.32C65.2253 8.576 65.492 8.85333 65.6626 9.152C65.8546 9.45067 65.876 9.728 65.7266 9.984C66.196 9.77067 66.5693 9.74933 66.8466 9.92C67.124 10.0907 67.2413 10.3467 67.1986 10.688C67.1773 11.008 66.932 11.2747 66.4626 11.488C66.8466 11.4453 67.156 11.5733 67.3906 11.872C67.6253 12.1707 67.764 12.5333 67.8066 12.96C67.8706 13.3653 67.828 13.7493 67.6786 14.112C67.5293 14.4533 67.2626 14.6453 66.8786 14.688C67.284 14.688 67.5826 14.912 67.7746 15.36C67.988 15.7867 68.0946 16.288 68.0946 16.864C68.0946 17.44 67.988 17.952 67.7746 18.4C67.5826 18.8267 67.284 19.04 66.8786 19.04C67.3266 19.04 67.6146 19.1893 67.7426 19.488C67.892 19.7867 67.892 20.0853 67.7426 20.384C67.6146 20.6827 67.3266 20.832 66.8786 20.832C67.2626 20.8747 67.5293 21.0347 67.6786 21.312C67.8493 21.568 67.9133 21.856 67.8706 22.176C67.828 22.4747 67.6893 22.7307 67.4546 22.944C67.2413 23.1573 66.9426 23.2427 66.5586 23.2C66.5586 23.5413 66.388 23.808 66.0466 24C65.7266 24.1707 65.3426 24.256 64.8946 24.256C64.468 24.256 64.084 24.1707 63.7426 24C63.4226 23.808 63.2626 23.5413 63.2626 23.2C63.2626 23.584 63.124 23.872 62.8466 24.064C62.5693 24.2773 62.2386 24.384 61.8546 24.384C61.492 24.4053 61.172 24.32 60.8946 24.128C60.6173 23.9573 60.468 23.6693 60.4466 23.264C60.1906 23.264 59.9986 23.0507 59.8706 22.624C59.764 22.1973 59.7213 21.7067 59.7426 21.152C59.7853 20.5973 59.8813 20.1173 60.0306 19.712C60.18 19.2853 60.3826 19.072 60.6386 19.072C60.2973 19.072 60.0306 18.944 59.8386 18.688C59.6466 18.4107 59.54 18.0907 59.5186 17.728C59.4973 17.3653 59.5506 17.024 59.6786 16.704C59.828 16.384 60.052 16.1813 60.3506 16.096C60.0733 16.0747 59.8066 15.9253 59.5506 15.648C59.2946 15.3493 59.06 14.9973 58.8466 14.592C58.6546 14.1653 58.5373 13.7493 58.4946 13.344C58.2386 13.5573 57.9293 13.7067 57.5666 13.792C57.2253 13.8773 56.916 13.8773 56.6386 13.792C56.7453 14.048 56.7773 14.336 56.7346 14.656C56.692 14.976 56.596 15.2533 56.4466 15.488C56.2973 15.7227 56.0946 15.8293 55.8386 15.808C56.2226 15.808 56.468 15.9147 56.5746 16.128C56.7026 16.32 56.7026 16.5227 56.5746 16.736C56.468 16.9493 56.2226 17.056 55.8386 17.056C56.1586 17.056 56.404 17.2587 56.5746 17.664C56.7453 18.0693 56.8306 18.5387 56.8306 19.072C56.8306 19.6053 56.7453 20.0853 56.5746 20.512C56.404 20.9173 56.1586 21.12 55.8386 21.12C56.1586 21.312 56.3293 21.568 56.3506 21.888C56.372 22.1867 56.2973 22.4747 56.1266 22.752C55.956 23.0293 55.7213 23.232 55.4226 23.36C55.124 23.4667 54.8146 23.4133 54.4946 23.2C54.4946 23.52 54.3346 23.776 54.0146 23.968C53.6946 24.1387 53.2893 24.256 52.7986 24.32C52.3293 24.4053 51.8493 24.416 51.3586 24.352C50.868 24.3093 50.452 24.2027 50.1106 24.032C49.7693 23.8827 49.588 23.6693 49.5666 23.392ZM78.2011 30.176C78.1158 30.6027 77.9238 30.9013 77.6251 31.072C77.3478 31.2427 77.0491 31.296 76.7291 31.232C76.4305 31.168 76.1745 30.9973 75.9611 30.72C75.7691 30.464 75.7158 30.1227 75.8011 29.696C75.6518 29.9947 75.3958 30.144 75.0331 30.144C74.6918 30.1653 74.3398 30.08 73.9771 29.888C73.6145 29.7173 73.3265 29.4827 73.1131 29.184C72.9211 28.9067 72.8998 28.6187 73.0491 28.32C72.7718 28.5547 72.4838 28.64 72.1851 28.576C71.8865 28.512 71.6305 28.352 71.4171 28.096C71.2038 27.8613 71.0865 27.584 71.0651 27.264C71.0651 26.9653 71.2038 26.6987 71.4811 26.464C71.2038 26.1227 71.1505 25.792 71.3211 25.472C71.4918 25.152 71.7478 24.9493 72.0891 24.864C72.4518 24.7787 72.7718 24.9067 73.0491 25.248C73.0491 24.864 73.1665 24.576 73.4011 24.384C73.6571 24.2133 73.9345 24.128 74.2331 24.128C74.5531 24.128 74.8305 24.2133 75.0651 24.384C75.3211 24.576 75.4491 24.864 75.4491 25.248C75.5771 24.9707 75.8545 24.8427 76.2811 24.864C76.7291 24.9067 77.1771 25.0347 77.6251 25.248C78.0731 25.4827 78.3718 25.7387 78.5211 26.016C78.6065 25.76 78.7985 25.472 79.0971 25.152C79.3958 24.832 79.7265 24.544 80.0891 24.288C80.4518 24.032 80.7931 23.8613 81.1131 23.776C80.8998 23.6693 80.7398 23.4987 80.6331 23.264C80.5265 23.008 80.4838 22.7733 80.5051 22.56C80.2065 22.6667 79.8971 22.6987 79.5771 22.656C79.2571 22.592 79.0651 22.4107 79.0011 22.112C79.0225 22.3893 78.8518 22.6133 78.4891 22.784C78.1265 22.9333 77.6998 23.0293 77.2091 23.072C76.7398 23.0933 76.3131 23.0507 75.9291 22.944C75.5665 22.8373 75.3745 22.6453 75.3531 22.368C75.2251 22.6667 75.0011 22.8373 74.6811 22.88C74.3611 22.9227 74.0305 22.88 73.6891 22.752C73.3478 22.6027 73.0705 22.4 72.8571 22.144C72.6651 21.888 72.6225 21.6107 72.7291 21.312C72.4945 21.4187 72.2385 21.3547 71.9611 21.12C71.7051 20.8853 71.4491 20.5653 71.1931 20.16C70.9585 19.7333 70.7665 19.296 70.6171 18.848C70.4891 18.3787 70.4251 17.9627 70.4251 17.6C70.4465 17.2373 70.5745 17.0027 70.8091 16.896C70.5318 16.8747 70.3078 16.704 70.1371 16.384C69.9878 16.0427 69.9025 15.6373 69.8811 15.168C69.8598 14.6773 69.8811 14.1973 69.9451 13.728C70.0305 13.2373 70.1691 12.832 70.3611 12.512C70.5531 12.192 70.7985 12.0427 71.0971 12.064C70.7985 11.872 70.6811 11.5627 70.7451 11.136C70.8091 10.7093 70.9798 10.2827 71.2571 9.856C71.5345 9.42933 71.8545 9.09867 72.2171 8.864C72.5798 8.62933 72.9105 8.608 73.2091 8.8C73.1451 8.50133 73.2625 8.24533 73.5611 8.032C73.8598 7.79733 74.2438 7.616 74.7131 7.488C75.2038 7.36 75.6945 7.28533 76.1851 7.264C76.6758 7.22133 77.0918 7.264 77.4331 7.392C77.7958 7.49867 77.9985 7.70133 78.0411 8C78.2118 7.616 78.4358 7.392 78.7131 7.328C78.9905 7.264 79.2465 7.30667 79.4811 7.456C79.7371 7.60533 79.8758 7.84 79.8971 8.16C80.0891 7.88267 80.3771 7.68 80.7611 7.552C81.1665 7.424 81.5505 7.41333 81.9131 7.52C82.2758 7.60533 82.4998 7.81867 82.5851 8.16C82.5851 7.60533 82.7025 7.24267 82.9371 7.072C83.1718 6.88 83.4065 6.88 83.6411 7.072C83.8758 7.24267 83.9931 7.60533 83.9931 8.16C84.0145 7.81867 84.2278 7.584 84.6331 7.456C85.0598 7.328 85.5398 7.28533 86.0731 7.328C86.6065 7.37067 87.0651 7.488 87.4491 7.68C87.8331 7.872 88.0145 8.13867 87.9931 8.48C88.3558 8.48 88.6225 8.704 88.7931 9.152C88.9851 9.57867 89.0811 10.08 89.0811 10.656C89.0811 11.2107 88.9851 11.712 88.7931 12.16C88.6225 12.5867 88.3558 12.8 87.9931 12.8C88.3131 12.8 88.5478 12.9387 88.6971 13.216C88.8678 13.472 88.9531 13.7813 88.9531 14.144C88.9531 14.4853 88.8678 14.7947 88.6971 15.072C88.5478 15.328 88.3131 15.456 87.9931 15.456C88.3771 15.456 88.6651 15.6693 88.8571 16.096C89.0705 16.5227 89.1771 17.0133 89.1771 17.568C89.1771 18.1013 89.0811 18.5813 88.8891 19.008C88.6971 19.4347 88.4091 19.648 88.0251 19.648C88.3878 19.648 88.6545 19.8187 88.8251 20.16C89.0171 20.48 89.1131 20.864 89.1131 21.312C89.1131 21.7387 89.0171 22.1227 88.8251 22.464C88.6545 22.784 88.3878 22.944 88.0251 22.944C88.3665 23.0293 88.5691 23.3067 88.6331 23.776C88.7185 24.224 88.6971 24.7147 88.5691 25.248C88.4625 25.8027 88.2705 26.272 87.9931 26.656C87.7371 27.04 87.4385 27.1893 87.0971 27.104C87.4598 27.4027 87.6198 27.7013 87.5771 28C87.5345 28.2987 87.3638 28.4907 87.0651 28.576C86.7878 28.6827 86.4678 28.5867 86.1051 28.288C86.3825 28.6933 86.4251 29.0453 86.2331 29.344C86.0625 29.664 85.7958 29.8453 85.4331 29.888C85.0918 29.9307 84.7825 29.7493 84.5051 29.344C84.5905 29.728 84.3985 30.0587 83.9291 30.336C83.4811 30.6347 82.8945 30.8373 82.1691 30.944C81.4438 31.072 80.7185 31.072 79.9931 30.944C79.2678 30.8373 78.6705 30.5813 78.2011 30.176ZM81.8171 15.616C81.4971 15.616 81.3051 15.4667 81.2411 15.168C81.1985 14.848 81.2945 14.624 81.5291 14.496C81.2305 14.496 80.9318 14.304 80.6331 13.92C80.3345 13.5147 80.1745 13.12 80.1531 12.736C79.8758 12.9707 79.4811 13.1627 78.9691 13.312C78.4785 13.44 78.0731 13.4613 77.7531 13.376C77.9025 13.6533 77.9131 14.016 77.7851 14.464C77.6785 14.8907 77.4865 15.1467 77.2091 15.232C77.4225 15.2533 77.6145 15.392 77.7851 15.648C77.9771 15.904 78.1158 16.2027 78.2011 16.544C78.3078 16.8853 78.3398 17.1947 78.2971 17.472C78.5745 17.28 78.8945 17.2587 79.2571 17.408C79.6411 17.536 79.9505 17.792 80.1851 18.176C80.0998 17.92 80.1745 17.664 80.4091 17.408C80.6651 17.1307 80.9211 16.992 81.1771 16.992C80.9851 16.864 80.8891 16.6827 80.8891 16.448C80.8891 16.192 80.9638 15.9787 81.1131 15.808C81.2838 15.6373 81.5185 15.5733 81.8171 15.616ZM92.5056 23.008C92.2283 23.008 92.0043 22.8587 91.8336 22.56C91.6843 22.2613 91.5776 21.888 91.5136 21.44C91.4496 20.992 91.4496 20.544 91.5136 20.096C91.5776 19.648 91.6843 19.2747 91.8336 18.976C92.0043 18.6773 92.2283 18.528 92.5056 18.528C92.1003 18.528 91.791 18.3467 91.5776 17.984C91.3856 17.6213 91.2896 17.2053 91.2896 16.736C91.2896 16.2667 91.3856 15.8507 91.5776 15.488C91.791 15.1253 92.1003 14.944 92.5056 14.944C92.079 14.944 91.759 14.848 91.5456 14.656C91.3323 14.4427 91.2256 14.1973 91.2256 13.92C91.2256 13.6427 91.3323 13.408 91.5456 13.216C91.759 13.0027 92.079 12.896 92.5056 12.896C92.079 12.896 91.759 12.704 91.5456 12.32C91.3323 11.9147 91.2256 11.4453 91.2256 10.912C91.2256 10.3787 91.3323 9.92 91.5456 9.536C91.759 9.13067 92.079 8.928 92.5056 8.928C92.0576 8.928 91.7163 8.82133 91.4816 8.608C91.2683 8.37333 91.1616 8.11733 91.1616 7.84C91.1616 7.56267 91.2683 7.31733 91.4816 7.104C91.7163 6.86933 92.0576 6.752 92.5056 6.752C92.1856 6.752 91.919 6.60267 91.7056 6.304C91.5136 6.00533 91.3856 5.632 91.3216 5.184C91.2576 4.736 91.2576 4.288 91.3216 3.84C91.3856 3.392 91.5136 3.01867 91.7056 2.72C91.919 2.42133 92.1856 2.272 92.5056 2.272C92.4203 1.78133 92.463 1.44 92.6336 1.248C92.8256 1.056 93.0283 1.024 93.2416 1.152C93.4763 1.28 93.6363 1.58933 93.7216 2.08C93.7216 1.71733 93.871 1.42933 94.1696 1.216C94.4896 1.00267 94.8736 0.863998 95.3216 0.799999C95.7696 0.714666 96.2176 0.714666 96.6656 0.799999C97.135 0.863998 97.519 1.00267 97.8176 1.216C98.1376 1.42933 98.2976 1.71733 98.2976 2.08C98.703 2.08 99.0016 2.29333 99.1936 2.72C99.407 3.12533 99.5136 3.60533 99.5136 4.16C99.535 4.69333 99.4496 5.17333 99.2576 5.6C99.0656 6.02667 98.767 6.24 98.3616 6.24C98.703 6.24 98.9803 6.4 99.1936 6.72C99.407 7.04 99.5456 7.43467 99.6096 7.904C99.6736 8.37333 99.6736 8.84267 99.6096 9.312C99.5456 9.78133 99.407 10.176 99.1936 10.496C98.9803 10.816 98.703 10.976 98.3616 10.976C98.767 10.976 99.0656 11.0933 99.2576 11.328C99.471 11.5627 99.5776 11.8293 99.5776 12.128C99.5776 12.4267 99.471 12.6933 99.2576 12.928C99.0656 13.1627 98.767 13.28 98.3616 13.28C98.6816 13.28 98.927 13.3973 99.0976 13.632C99.2683 13.8453 99.3536 14.0907 99.3536 14.368C99.3536 14.6453 99.2683 14.9013 99.0976 15.136C98.927 15.3493 98.6816 15.456 98.3616 15.456C98.767 15.456 99.0656 15.68 99.2576 16.128C99.471 16.5547 99.5776 17.056 99.5776 17.632C99.5776 18.208 99.471 18.72 99.2576 19.168C99.0656 19.5947 98.767 19.808 98.3616 19.808C98.7883 19.808 99.0976 19.936 99.2896 20.192C99.503 20.448 99.6096 20.7467 99.6096 21.088C99.6096 21.4293 99.503 21.728 99.2896 21.984C99.0976 22.24 98.7883 22.368 98.3616 22.368C98.639 22.752 98.7136 23.0827 98.5856 23.36C98.479 23.6373 98.2763 23.776 97.9776 23.776C97.7003 23.776 97.423 23.584 97.1456 23.2C97.1456 23.8187 96.975 24.224 96.6336 24.416C96.2923 24.6293 95.951 24.6293 95.6096 24.416C95.2896 24.224 95.1296 23.8187 95.1296 23.2C95.1296 23.5413 94.991 23.7973 94.7136 23.968C94.4576 24.1387 94.159 24.2133 93.8176 24.192C93.4976 24.192 93.199 24.096 92.9216 23.904C92.6656 23.6907 92.527 23.392 92.5056 23.008ZM108.865 23.424C108.737 23.872 108.503 24.16 108.161 24.288C107.82 24.4373 107.457 24.4587 107.073 24.352C106.711 24.2667 106.412 24.0747 106.177 23.776C105.943 23.4773 105.889 23.104 106.017 22.656C105.783 22.976 105.505 23.1573 105.185 23.2C104.865 23.2213 104.567 23.136 104.289 22.944C104.033 22.752 103.863 22.5067 103.777 22.208C103.713 21.888 103.809 21.5573 104.065 21.216C103.745 21.3653 103.425 21.3013 103.105 21.024C102.785 20.7253 102.519 20.3413 102.305 19.872C102.092 19.3813 101.985 18.9227 101.985 18.496C101.985 18.0693 102.145 17.7813 102.465 17.632C102.081 17.632 101.793 17.4507 101.601 17.088C101.409 16.7253 101.313 16.2987 101.313 15.808C101.313 15.3173 101.409 14.8907 101.601 14.528C101.793 14.1653 102.071 13.984 102.433 13.984C101.857 13.8133 101.516 13.5573 101.409 13.216C101.303 12.8747 101.377 12.5867 101.633 12.352C101.911 12.1173 102.337 12.0853 102.913 12.256C102.721 12.0853 102.657 11.84 102.721 11.52C102.807 11.1787 102.977 10.8267 103.233 10.464C103.489 10.1013 103.777 9.78133 104.097 9.504C104.417 9.20533 104.727 8.992 105.025 8.864C105.345 8.736 105.601 8.75733 105.793 8.928C105.687 8.56533 105.783 8.24533 106.081 7.968C106.401 7.69067 106.796 7.488 107.265 7.36C107.735 7.21067 108.172 7.17867 108.577 7.264C108.983 7.328 109.239 7.54133 109.345 7.904C109.367 7.49867 109.601 7.22133 110.049 7.072C110.519 6.90133 111.031 6.83733 111.585 6.88C112.161 6.92267 112.663 7.06133 113.089 7.296C113.516 7.53067 113.708 7.85067 113.665 8.256C113.836 7.85067 114.071 7.63733 114.369 7.616C114.689 7.57333 114.945 7.66933 115.137 7.904C115.351 8.13867 115.383 8.45867 115.233 8.864C115.468 8.62933 115.777 8.59733 116.161 8.768C116.567 8.91733 116.951 9.17333 117.313 9.536C117.697 9.89867 117.964 10.2827 118.113 10.688C118.284 11.0933 118.252 11.4133 118.017 11.648C118.337 11.584 118.625 11.6907 118.881 11.968C119.159 12.2453 119.372 12.608 119.521 13.056C119.692 13.504 119.788 13.9733 119.809 14.464C119.831 14.9333 119.777 15.3493 119.649 15.712C119.521 16.0747 119.287 16.288 118.945 16.352C119.564 16.6293 119.841 16.8427 119.777 16.992C119.713 17.12 119.372 17.0453 118.753 16.768C118.753 17.0453 118.572 17.2587 118.209 17.408C117.868 17.536 117.473 17.6 117.025 17.6C116.577 17.6 116.172 17.536 115.809 17.408C115.468 17.2587 115.297 17.0453 115.297 16.768C115.297 17.1307 115.137 17.408 114.817 17.6C114.497 17.7707 114.124 17.8667 113.697 17.888C113.292 17.888 112.929 17.8027 112.609 17.632C112.289 17.44 112.129 17.1733 112.129 16.832C112.151 17.1947 111.969 17.4933 111.585 17.728C111.223 17.9413 110.807 18.0693 110.337 18.112C110.551 18.368 110.721 18.6453 110.849 18.944C110.999 19.2213 111.095 19.4773 111.137 19.712C111.351 19.4773 111.671 19.2747 112.097 19.104C112.524 18.9333 112.961 18.8267 113.409 18.784C113.857 18.7413 114.252 18.7733 114.593 18.88C114.956 18.9653 115.169 19.1573 115.233 19.456C115.233 19.0933 115.372 18.816 115.649 18.624C115.948 18.432 116.289 18.336 116.673 18.336C117.057 18.336 117.388 18.432 117.665 18.624C117.964 18.816 118.113 19.0933 118.113 19.456C118.54 19.5413 118.796 19.7227 118.881 20C118.967 20.256 118.913 20.4907 118.721 20.704C118.529 20.896 118.231 20.9493 117.825 20.864C118.017 21.1413 118.049 21.4293 117.921 21.728C117.793 22.0053 117.58 22.2507 117.281 22.464C117.004 22.656 116.705 22.7627 116.385 22.784C116.087 22.8053 115.841 22.688 115.649 22.432C115.777 22.8373 115.713 23.1893 115.457 23.488C115.223 23.7867 114.903 24 114.497 24.128C114.092 24.256 113.697 24.256 113.313 24.128C112.951 24.0213 112.705 23.7653 112.577 23.36C112.62 23.936 112.46 24.3307 112.097 24.544C111.756 24.7573 111.287 24.768 110.689 24.576C110.113 24.4053 109.505 24.0213 108.865 23.424ZM110.177 14.368C110.177 13.9413 110.295 13.7067 110.529 13.664C110.764 13.6 110.924 13.728 111.009 14.048C111.073 13.856 111.201 13.6747 111.393 13.504C111.585 13.3333 111.788 13.216 112.001 13.152C111.745 12.96 111.532 12.6827 111.361 12.32C111.191 11.9573 111.137 11.6373 111.201 11.36C111.009 11.4667 110.775 11.5307 110.497 11.552C110.241 11.5733 110.017 11.5413 109.825 11.456C109.889 11.6907 109.879 11.968 109.793 12.288C109.708 12.608 109.569 12.896 109.377 13.152C109.207 13.408 109.004 13.5467 108.769 13.568C109.047 13.632 109.249 13.7813 109.377 14.016C109.527 14.2507 109.793 14.368 110.177 14.368Z" fill="#688EDC"/>
</svg>
